Coordinates
version=1
nRows=32
nColumns=22
inDegrees=yes

Units are S.I. units (second, meters, Newtons, ...)
If the header above contains a line with 'inDegrees', this indicates whether rotational values are in degrees (yes) or radians (no).

endheader
time	pelvis_tilt	pelvis_list	pelvis_rotation	pelvis_tx	pelvis_ty	pelvis_tz	hip_flexion_r	hip_adduction_r	hip_rotation_r	knee_angle_r	ankle_angle_r	subtalar_angle_r	hip_flexion_l	hip_adduction_l	hip_rotation_l	knee_angle_l	ankle_angle_l	subtalar_angle_l	lumbar_extension	lumbar_bending	lumbar_rotation
      4.16000000	      2.96780322	     -4.57267868	     11.79950728	     -0.07255258	      1.00160237	     -0.47656028	     -1.54977405	     17.89672190	      5.12538147	    -12.64240967	      9.41863353	     -8.70678249	     21.54703815	    -13.49290289	      4.25740712	    -37.16091518	      9.29391647	      3.58447062	    -15.55997657	      7.34252075	     11.20559782
      4.17000000	      2.69840127	     -4.47799673	     11.05769613	     -0.06735758	      1.00146428	     -0.47697017	     -1.80767988	     17.68826200	      5.69518458	    -12.57376819	      9.48211681	     -8.79906018	     21.95929848	    -12.82426089	      4.82087249	    -35.26586692	      8.91322162	      4.42264692	    -15.53009643	      7.15197994	     11.26503863
      4.18000000	      2.45833663	     -4.37455616	     10.32445086	     -0.06208787	      1.00134759	     -0.47735328	     -2.09554267	     17.47475700	      6.22670184	    -12.50469479	      9.55661276	     -8.87654657	     22.30951328	    -12.17010068	      5.23608900	    -33.36334065	      8.48468173	      5.27827219	    -15.52599148	      6.95935009	     11.32079155
      4.19000000	      2.25257144	     -4.27393362	      9.60353596	     -0.05674761	      1.00124957	     -0.47770063	     -2.41568998	     17.26879352	      6.73564303	    -12.43668420	      9.62154342	     -8.93809977	     22.60583173	    -11.54719485	      5.47099143	    -31.46700482	      8.01725034	      6.16882964	    -15.55445561	      6.77804710	     11.35938529
      4.20000000	      2.07168791	     -4.17241518	      8.88926781	     -0.05130067	      1.00115439	     -0.47799389	     -2.76859141	     17.06257028	      7.22702776	    -12.35738021	      9.70490863	     -8.98101693	     22.85190192	    -10.95378606	      5.48791532	    -29.57340850	      7.53447487	      7.07356381	    -15.59856689	      6.59517966	     11.40471411
      4.21000000	      1.92046111	     -4.08270781	      8.19130256	     -0.04577439	      1.00105974	     -0.47826318	     -3.15237105	     16.86840754	      7.71351554	    -12.27132678	      9.77937791	     -9.00288826	     23.05941868	    -10.39445232	      5.28585692	    -27.70354936	      7.04517025	      8.03704052	    -15.66559829	      6.43543913	     11.42931208
      4.22000000	      1.79125972	     -4.00642550	      7.51414896	     -0.04016158	      1.00094759	     -0.47850017	     -3.55763733	     16.68709819	      8.19527272	    -12.18166320	      9.85145412	     -8.99963069	     23.23669308	     -9.86299480	      4.87331784	    -25.86137942	      6.56206931	      9.05851607	    -15.74756736	      6.29631397	     11.43230038
      4.23000000	      1.67322039	     -3.93640800	      6.84622301	     -0.03444503	      1.00080435	     -0.47873151	     -3.98035125	     16.50504976	      8.68298059	    -12.08176986	      9.94423108	     -8.96888749	     23.38193492	     -9.34016714	      4.27530375	    -24.04417071	      6.12365997	     10.10631699	    -15.82763162	      6.17070870	     11.44740887
      4.24000000	      1.56472145	     -3.87543872	      6.19230655	     -0.02865343	      1.00061497	     -0.47893321	     -4.40033390	     16.32993340	      9.17268165	    -12.00356642	     10.05343440	     -8.90920691	     23.49821230	     -8.82245276	      3.53753326	    -22.25634112	      5.73801029	     11.16182107	    -15.91212935	      6.05966044	     11.45899606
      4.25000000	      1.46679896	     -3.82602526	      5.56957895	     -0.02277557	      1.00038384	     -0.47916605	     -4.82671118	     16.16231059	      9.65417732	    -11.92598591	     10.15271325	     -8.81432611	     23.58823956	     -8.29457196	      2.73787025	    -20.51155077	      5.40075586	     12.24235118	    -15.99636936	      5.97881134	     11.43468989
      4.26000000	      1.37390000	     -3.78988003	      4.98065988	     -0.01682622	      1.00009589	     -0.47942878	     -5.24297927	     16.00646928	     10.11912552	    -11.86753289	     10.24960139	     -8.68549901	     23.65103621	     -7.75086976	      1.95325970	    -18.80674817	      5.11419680	     13.29127187	    -16.07684799	      5.92588197	     11.37893996
      4.27000000	      1.28293065	     -3.75703965	      4.39363525	     -0.01075770	      0.99973937	     -0.47968424	     -5.64859044	     15.84992916	     10.57719670	    -11.84144419	     10.37865498	     -8.53558567	     23.66753280	     -7.19185240	      1.22222568	    -17.13757281	      4.96889826	     14.18633202	    -16.14490598	      5.88157612	     11.34980021
      4.28000000	      1.20407686	     -3.74078093	      3.83930513	     -0.00458745	      0.99932789	     -0.47996911	     -6.04758590	     15.71326132	     11.01157282	    -11.84746403	     10.50385389	     -8.35476952	     23.64434898	     -6.62191651	      0.62078009	    -15.53229564	      4.89616906	     14.96730743	    -16.21120174	      5.86936520	     11.28554339
      4.29000000	      1.13172428	     -3.74469145	      3.30797722	      0.00171537	      0.99884010	     -0.48024965	     -6.44327176	     15.59987932	     11.42993645	    -11.87633797	     10.62666853	     -8.14722044	     23.58546027	     -6.05400571	      0.18265262	    -14.00742845	      4.91113522	     15.58276882	    -16.26362388	      5.88483077	     11.20582636
      4.30000000	      1.07015472	     -3.77152299	      2.78745659	      0.00817081	      0.99827765	     -0.48049117	     -6.83761185	     15.51502445	     11.83833343	    -11.94134881	     10.75247755	     -7.92240433	     23.49330304	     -5.50449617	     -0.10618361	    -12.60077954	      5.01196113	     16.01109194	    -16.30541925	      5.92680154	     11.12432189
      4.31000000	      1.01959289	     -3.82410966	      2.26829844	      0.01478259	      0.99763745	     -0.48065224	     -7.23323373	     15.46226798	     12.24302408	    -12.04324964	     10.87804942	     -7.69006100	     23.37927542	     -4.98877958	     -0.26999666	    -11.35424171	      5.17833992	     16.27345653	    -16.33702987	      5.98887494	     11.04648070
      4.32000000	      0.98749732	     -3.90722178	      1.74996677	      0.02157318	      0.99692773	     -0.48072120	     -7.64727691	     15.44534735	     12.64751368	    -12.16975602	     11.00213941	     -7.44316863	     23.24699080	     -4.51831653	     -0.33047228	    -10.30974346	      5.39021105	     16.42378471	    -16.36428546	      6.07610203	     10.97367487
      4.33000000	      0.93121852	     -4.02772612	      1.21868965	      0.02852608	      0.99607878	     -0.48065770	     -8.03391210	     15.47119691	     13.07410919	    -12.32501205	     11.15397537	     -7.25447573	     23.15430918	     -4.10842186	     -0.31366878	     -9.50449292	      5.58819588	     16.48644688	    -16.34023800	      6.18901070	     10.92590071
      4.34000000	      0.94854014	     -4.15282869	      0.67501600	      0.03566324	      0.99527238	     -0.48045629	     -8.49608642	     15.50318932	     13.49041762	    -12.51729196	     11.24295005	     -6.97023602	     22.99450346	     -3.73440452	     -0.27386319	     -8.95959894	      5.82799180	     16.51715677	    -16.38617091	      6.28899234	     10.87558526
      4.35000000	      0.95562127	     -4.29588441	      0.12350241	      0.04301985	      0.99437567	     -0.48012656	     -8.96418022	     15.54981728	     13.87891995	    -12.70689936	     11.33444654	     -6.67944168	     22.84443427	     -3.40367677	     -0.14213670	     -8.64937139	      6.01590501	     16.48950753	    -16.39053244	      6.39033329	     10.84725898
      4.36000000	      0.94904831	     -4.46106056	     -0.44670031	      0.05053337	      0.99339762	     -0.47963159	     -9.42485433	     15.62038842	     14.29110781	    -12.91513602	     11.42787025	     -6.42751784	     22.71169621	     -3.12911807	      0.09467803	     -8.57293919	      6.09019080	     16.37938176	    -16.36236231	      6.49759112	     10.82192983
      4.37000000	      0.95012658	     -4.61681763	     -1.02870382	      0.05820566	      0.99240425	     -0.47897512	     -9.90231818	     15.67963305	     14.69495339	    -13.13371315	     11.49757039	     -6.15201722	     22.55663125	     -2.87774486	      0.50151914	     -8.68929490	      6.00908803	     16.10545176	    -16.32772609	      6.56933846	     10.80092803
      4.38000000	      0.93570465	     -4.75786568	     -1.61414460	      0.06602055	      0.99137825	     -0.47820890	    -10.36573429	     15.72063061	     15.05988278	    -13.36533416	     11.59058888	     -5.90245541	     22.39711278	     -2.63985815	      1.12662190	     -8.95311133	      5.71569958	     15.60123615	    -16.25995271	      6.61286937	     10.76502370
      4.39000000	      0.89345617	     -4.86954891	     -2.20697324	      0.07394595	      0.99034819	     -0.47729142	    -10.79869826	     15.73213619	     15.39487822	    -13.60673222	     11.63671946	     -5.69716481	     22.24451546	     -2.40915062	      1.98272294	     -9.32002652	      5.12730608	     14.87821317	    -16.14643202	      6.60412113	     10.71292948
      4.40000000	      0.82507199	     -4.93833220	     -2.80894052	      0.08194658	      0.98934640	     -0.47624197	    -11.18802096	     15.70236285	     15.70112429	    -13.88065102	     11.68452678	     -5.52787709	     22.10589893	     -2.17581240	      3.05711594	     -9.75956757	      4.24410791	     13.92909886	    -15.99596496	      6.53440493	     10.62887654
      4.41000000	      0.73554863	     -4.96011949	     -3.42169870	      0.09000754	      0.98841356	     -0.47503066	    -11.52780727	     15.63356406	     15.99579023	    -14.20421375	     11.71268719	     -5.37359608	     21.99609968	     -1.94636474	      4.27294100	    -10.26539571	      3.10582248	     12.70146023	    -15.81345152	      6.39545810	     10.50385674
      4.42000000	      0.62407995	     -4.91945319	     -4.02681728	      0.09813969	      0.98758429	     -0.47373400	    -11.81612986	     15.50676272	     16.23515989	    -14.56178636	     11.68462661	     -5.23415543	     21.94970132	     -1.70128221	      5.54195446	    -10.86186143	      1.78201506	     11.41061788	    -15.59267859	      6.17939358	     10.35569732
      4.43000000	      0.52265483	     -4.81601212	     -4.58568126	      0.10635540	      0.98691391	     -0.47241862	    -12.06188994	     15.33030884	     16.35771802	    -14.98510622	     11.63005194	     -5.08801060	     21.96929844	     -1.43010203	      6.74272396	    -11.59375579	      0.41330955	     10.21972567	    -15.36579421	      5.89569739	     10.12078928
      4.44000000	      0.43650966	     -4.66468454	     -5.14475840	      0.11469513	      0.98644908	     -0.47100209	    -12.28866988	     15.11656635	     16.51053827	    -15.46721209	     11.50252805	     -4.88445426	     22.04347051	     -1.16992892	      7.71498056	    -12.46648154	     -0.79342751	      9.11694234	    -15.13679262	      5.54886720	      9.87601529
      4.45000000	      0.38966397	     -4.47758829	     -5.68955906	      0.12314834	      0.98624003	     -0.46950275	    -12.50920797	     14.87948660	     16.68721260	    -16.02213774	     11.27489410	     -4.58649642	     22.14660212	     -0.92806749	      8.38084081	    -13.48580357	     -1.73618290	      8.18391926	    -14.93718608	      5.15371102	      9.59372685
      4.46000000	      0.39043638	     -4.24298468	     -6.19245578	      0.13172083	      0.98627744	     -0.46798550	    -12.71319928	     14.60865558	     16.80450904	    -16.67114502	     11.02479913	     -4.20858396	     22.25598230	     -0.67479375	      8.73992622	    -14.62744205	     -2.35136073	      7.51275607	    -14.77246549	      4.70236345	      9.25331611
      4.47000000	      0.42413112	     -3.99296180	     -6.69421550	      0.14034497	      0.98655483	     -0.46634359	    -12.88327577	     14.33244542	     16.90620856	    -17.42119339	     10.65013565	     -3.70661734	     22.34968755	     -0.45920334	      8.79224366	    -15.83407087	     -2.58623307	      6.99754549	    -14.63818355	      4.21782087	      8.92133422
